<?xml version="1.0" encoding="utf-8"?>
<!-- Generator: Adobe Illustrator 18.1.1, SVG Export Plug-In . SVG Version: 6.00 Build 0)  -->
<svg version="1.1" xmlns="http://www.w3.org/2000/svg" xmlns:xlink="http://www.w3.org/1999/xlink" x="0px" y="0px"
	 viewBox="0 0 124.6 113.6" enable-background="new 0 0 124.6 113.6" xml:space="preserve">
<g id="Слой_2">
	<rect x="-165.7" y="-231.1" fill="transparent" width="800" height="598"/>
</g>
<g id="Слой_3">
</g>
<g id="Слой_1">
	<g>
		<path fill="#A23B4B" d="M107.2,11.1c-5.7-4.4-12.8-7-20.5-7c-4.4,0-8.6,0.8-12.4,2.4c-11.5,4-20.2,14.2-20.9,26.5
			c0,0.1-0.1,0.2-0.1,0.4c-0.1,2.1-0.1,7.1-0.1,7.1v1.3v12.5l2.6-3.1l18.8-22.5c2.7-3.1,5.5-4.6,8.4-4.6c1.2,0,3.1,0,4.3,0.4
			c2.3,0.7,3.8,2.6,4.5,4.5c0.7,1.8,1.3,3.8,1.3,5.9c0,8.6,0,33.7,0,33.7v2v6.4c0,2.8-1,5.5-3,7.8c-1.8,2-4.6,2.3-7.4,2.3
			c-2.6,0-4.9-0.9-6.7-2.8c-1.9-1.9-2.9-4.3-2.9-7.1v-8.9v-1.8V56.3l-6,7.2c0,0,0,0,0,0l-0.8,0.9L51,83.6c-0.5,0.7-1.3,1.4-2.4,2.2
			c-1.5,0.9-3.2,1.4-5.1,1.4c-1.6,0-3-0.3-4.4-1c-1.4-0.7-2.5-1.6-3.5-2.8c-1-1.2-1.7-2.6-2-4.1c-0.1-0.9-0.3-1.5-0.3-1.9V5.9
			c-15,3.2-27,14.5-27,30.3v41.2c0,17.1,14.9,29.2,31.1,30.9c6.5,0.7,9.1,1.1,26.2,1.1c15.8,0,19.5-0.2,25.9-1.1
			c15.8-2.3,30.7-13.8,30.7-30.9V37.7C120.3,26.9,115.2,17.3,107.2,11.1z"/>
	</g>
</g>
</svg>
