<?xml version="1.0" encoding="utf-8"?>
<!-- Generator: Adobe Illustrator 18.1.1, SVG Export Plug-In . SVG Version: 6.00 Build 0)  -->
<svg version="1.1" xmlns="http://www.w3.org/2000/svg" xmlns:xlink="http://www.w3.org/1999/xlink" x="0px" y="0px"
	 viewBox="0 0 460 122.7" enable-background="new 0 0 460 122.7" xml:space="preserve">
<g id="Слой_2">
	<rect x="-163" y="-225" fill="transparent" width="800" height="598"/>
</g>
<g id="Слой_3">
</g>
<g id="Слой_1">
	<g>
		<g>
			<path fill="#A23B4B" d="M178.7,85.7c-1.9,0-3.6-0.7-5-2.1c-1.4-1.4-2.1-3.2-2.1-5.3V62.8l-16.5,20.3c-0.4,0.5-1,1-1.8,1.6
				c-1.1,0.7-2.4,1-3.8,1c-1.2,0-2.3-0.2-3.3-0.7c-1-0.5-1.9-1.2-2.6-2.1c-0.7-0.9-1.2-1.9-1.4-3c-0.1-0.7-0.1-1.1-0.1-1.4V46.4
				c0-1,0.2-1.9,0.6-2.9c0.4-0.9,0.9-1.7,1.6-2.4c0.6-0.7,1.4-1.2,2.3-1.6c0.9-0.4,1.8-0.5,2.8-0.5c2,0,3.7,0.7,5.1,2.1
				c1.5,1.5,2.2,3.2,2.2,5.2v14.9l16-19c2-2.3,4-3.4,6.2-3.4c0.9,0,1.8,0.2,2.6,0.6c1.4,0.6,2.5,1.5,3.3,2.7
				c0.8,1.2,1.2,2.7,1.2,4.2v31.3c0,2.1-0.7,4-2.2,5.8C182.5,85,180.8,85.7,178.7,85.7z"/>
			<path fill="#A23B4B" d="M191.9,83.7c-1.4-1.4-2.2-3.2-2.2-5.2V46.3c0-2,0.7-3.8,2.1-5.2c1.4-1.4,3.2-2.1,5.2-2.1
				c2,0,3.7,0.7,5.2,2.2c0.5,0.5,0.9,1,1.2,1.5c0.3,0.5,0.5,1.1,0.7,1.8c0.2,0.7,0.3,1.3,0.3,1.9v9.2h14.3v-9.2c0-1,0.2-1.9,0.6-2.8
				c0.4-0.9,0.9-1.7,1.6-2.4c1.5-1.5,3.2-2.2,5.2-2.2c0.9,0,1.9,0.2,2.8,0.5c0.9,0.4,1.7,0.9,2.4,1.6c0.5,0.5,0.9,1,1.2,1.5
				c0.3,0.5,0.5,1.1,0.7,1.8c0.2,0.7,0.3,1.3,0.3,1.9v32.2c0,1-0.2,1.9-0.6,2.8c-0.4,0.9-0.9,1.7-1.6,2.4c-1.4,1.4-3.1,2.1-5.1,2.1
				c-1,0-1.9-0.2-2.7-0.5c-0.8-0.3-1.7-0.9-2.5-1.6c-1.4-1.4-2.2-3.1-2.2-5.2V68.3h-14.4v10.2c0,2.1-0.7,3.9-2.1,5.2
				c-0.7,0.7-1.5,1.3-2.4,1.6c-0.9,0.3-1.8,0.5-2.7,0.5C195,85.9,193.3,85.2,191.9,83.7z"/>
			<path fill="#A23B4B" d="M239.1,83.7c-1.4-1.5-2.2-3.3-2.2-5.4V46.2c0-1.3,0.3-2.5,1-3.6c0.7-1.1,1.5-2,2.7-2.6
				c1.1-0.6,2.4-1,3.7-1c1.3,0,2.5,0.4,3.6,1c1.1,0.7,2,1.5,2.6,2.7c0.6,1.1,1,2.3,1,3.7v9.1l12.8-14c0.6-0.6,1.3-1.2,2.2-1.7
				c0.8-0.4,1.9-0.6,3.1-0.6c1.5,0,2.8,0.4,4,1.1c1.2,0.7,2.1,1.8,2.7,3.2c0.4,1,0.6,2.1,0.6,3.2c0,1.9-0.6,3.5-1.8,4.6l-9.9,9.5
				l11.4,12.8c1.2,1.4,1.8,3,1.8,4.9c0,1-0.2,2.1-0.7,3.1c-0.5,1-1.2,1.9-2,2.6c-0.8,0.6-1.7,1.1-2.8,1.3c-0.9,0.2-1.5,0.2-1.9,0.2
				c-1,0-2-0.2-3-0.6c-0.9-0.4-1.7-1-2.4-1.8l-14.1-17.2v12.3c0,2.1-0.7,3.9-2.1,5.3c-1.4,1.4-3.1,2.1-5.1,2.1
				c-0.9,0-1.8-0.2-2.6-0.5C240.7,85,239.9,84.4,239.1,83.7z"/>
			<path fill="#A23B4B" d="M285.2,85.3c-1.4-0.6-2.5-1.5-3.3-2.6c-0.8-1.1-1.2-2.4-1.2-3.8c0-1.1,0.3-2.4,0.8-3.9l10.8-28
				c1-2.6,2.5-4.5,4.4-5.9c1.9-1.4,4.1-2.1,6.6-2.1c2.5,0,4.7,0.7,6.6,2.1c1.9,1.4,3.4,3.4,4.4,5.9l10.8,28c0.6,1.6,0.8,2.9,0.8,3.9
				c0,1.4-0.4,2.7-1.2,3.8c-0.8,1.1-1.9,2-3.3,2.6c-1,0.4-2,0.6-3,0.6c-1.5,0-2.8-0.5-4-1.4c-1.2-0.9-2.2-2.2-2.8-3.8l-0.7-2.1
				h-15.3l-0.8,2.1c-0.6,1.6-1.5,2.9-2.7,3.8c-1.2,0.9-2.6,1.4-4.1,1.4C287.2,86,286.1,85.7,285.2,85.3z M300,66h6.8l-3.4-12.2
				L300,66z"/>
			<path fill="#A23B4B" d="M329.4,76.5c-1.7-2.2-2.9-4.6-3.8-7.1c-0.9-2.5-1.3-5-1.3-7.4c0-2.4,0.5-4.9,1.4-7.3
				c0.9-2.4,2.2-4.8,4-6.9c3.9-4.8,9-7.6,15.4-8.5c1.7-0.2,3.4-0.4,5-0.4c2.3,0,4.3,0.3,6.2,0.8c1.8,0.5,3.3,1.2,4.5,2
				c1.2,0.8,2.1,1.8,2.6,2.8c0.6,1,0.9,2.1,0.9,3.2c0,1.5-0.4,2.8-1.3,3.8c-0.7,0.9-1.3,1.5-2,1.8c-0.7,0.3-1.5,0.5-2.6,0.5
				c-0.9,0-1.6,0-2.2-0.1c-1.1-0.2-2.5-0.6-4.4-1.3c-0.9-0.2-2-0.4-3.4-0.4c-2.4,0-4.5,0.7-6.2,2.1c-1.7,1.4-2.9,3.4-3.5,6.1
				c-0.1,0.6-0.2,1.3-0.2,2c0,0.7,0.1,1.4,0.2,2.1c0.3,1.7,0.9,3.2,1.7,4.4c0.8,1.2,1.8,2.1,3,2.7c1.2,0.6,2.7,0.9,4.3,0.9
				c2,0,4.4-0.5,7.2-1.4c0,0,0.1,0,0.3-0.1c0.1,0,0.3-0.1,0.4-0.1c0.7-0.2,1.5-0.2,2.3-0.2c2,0,3.6,0.6,4.8,1.9c1,1.2,1.6,2.6,1.6,4
				c0,1.3-0.4,2.6-1.3,3.9c-1.1,1.7-3.1,3.1-6.1,4.2c-2.1,0.8-4.7,1.3-7.6,1.3c-1.5,0-3.1-0.1-4.7-0.4c-4.4-0.7-8.2-2.4-11.4-5.1
				C331.8,79.2,330.6,78,329.4,76.5z"/>
			<path fill="#A23B4B" d="M369.6,76.5c-1.7-2.2-2.9-4.6-3.8-7.1c-0.9-2.5-1.3-5-1.3-7.4c0-2.4,0.5-4.9,1.4-7.3
				c0.9-2.4,2.2-4.8,4-6.9c3.9-4.8,9-7.6,15.4-8.5c1.7-0.2,3.4-0.4,5-0.4c2.3,0,4.3,0.3,6.2,0.8c1.8,0.5,3.3,1.2,4.5,2
				c1.2,0.8,2.1,1.8,2.6,2.8c0.6,1,0.9,2.1,0.9,3.2c0,1.5-0.4,2.8-1.3,3.8c-0.7,0.9-1.3,1.5-2,1.8c-0.7,0.3-1.5,0.5-2.6,0.5
				c-0.9,0-1.6,0-2.2-0.1c-1.1-0.2-2.5-0.6-4.4-1.3c-0.9-0.2-2-0.4-3.4-0.4c-2.4,0-4.5,0.7-6.2,2.1c-1.7,1.4-2.9,3.4-3.5,6.1
				c-0.1,0.6-0.2,1.3-0.2,2c0,0.7,0.1,1.4,0.2,2.1c0.3,1.7,0.9,3.2,1.7,4.4c0.8,1.2,1.8,2.1,3,2.7c1.2,0.6,2.7,0.9,4.3,0.9
				c2,0,4.4-0.5,7.2-1.4c0,0,0.1,0,0.3-0.1c0.1,0,0.3-0.1,0.4-0.1c0.7-0.2,1.5-0.2,2.3-0.2c2,0,3.6,0.6,4.8,1.9c1,1.2,1.6,2.6,1.6,4
				c0,1.3-0.4,2.6-1.3,3.9c-1.1,1.7-3.1,3.1-6.1,4.2c-2.1,0.8-4.7,1.3-7.6,1.3c-1.5,0-3.1-0.1-4.7-0.4c-4.4-0.7-8.2-2.4-11.4-5.1
				C371.9,79.2,370.7,78,369.6,76.5z"/>
			<path fill="#A23B4B" d="M409.1,75.4c-0.9-1.3-1.7-2.7-2.3-4.2c-0.6-1.5-1.1-2.9-1.4-4.4c-0.3-1.5-0.5-3-0.5-4.5
				c0-1.5,0.2-3,0.5-4.5c0.3-1.5,0.8-3,1.4-4.5c0.6-1.5,1.4-2.9,2.3-4.2c1.5-2.2,3.3-4,5.4-5.6c2.1-1.6,4.4-2.8,6.9-3.6
				c2.5-0.8,5-1.2,7.7-1.2c2,0,3.9,0.2,5.8,0.7c1.9,0.5,3.8,1.2,5.5,2.1c1.8,0.9,3.4,2,4.8,3.3c1.4,1.3,2.7,2.7,3.8,4.3
				c2.8,4.1,4.2,8.4,4.2,13.1c0,2.3-0.4,4.6-1.1,6.8c-0.7,2.2-1.8,4.3-3.1,6.3c-1.1,1.6-2.4,3-3.9,4.3c-1.5,1.3-3.1,2.4-4.7,3.3
				c-1.7,0.9-3.5,1.5-5.4,2c-2,0.5-3.9,0.8-5.9,0.8c-2.6,0-5.2-0.4-7.7-1.2c-2.5-0.8-4.8-2-6.9-3.6
				C412.3,79.5,410.5,77.6,409.1,75.4z M419.3,62.3c0,2,0.4,3.9,1.3,5.5c0.9,1.7,2,2.9,3.5,3.9c1.5,0.9,3.1,1.4,4.8,1.4
				c0.6,0,1.3-0.1,1.9-0.2c1.2-0.2,2.2-0.7,3.2-1.3c0.9-0.6,1.8-1.4,2.5-2.3c0.7-0.9,1.3-2,1.7-3.2c0.4-1.2,0.6-2.4,0.6-3.7
				c0-0.6-0.1-1.3-0.2-2c-0.3-1.8-0.9-3.3-1.8-4.6c-0.9-1.3-2-2.3-3.4-3c-1.4-0.7-2.8-1.1-4.4-1.1c-1.8,0-3.4,0.5-4.9,1.4
				c-1.5,0.9-2.6,2.2-3.5,3.9C419.7,58.5,419.3,60.3,419.3,62.3z"/>
		</g>
		<path fill="#A23B4B" d="M110,17.3c-5.7-4.4-12.8-7-20.5-7c-4.4,0-8.6,0.8-12.4,2.4c-11.5,4-20.2,14.2-20.9,26.5
			c0,0.1-0.1,0.2-0.1,0.4C56,41.6,56,46.6,56,46.6v1.3v12.5l2.6-3.1l18.8-22.5c2.7-3.1,5.5-4.6,8.4-4.6c1.2,0,3.1,0,4.3,0.4
			c2.3,0.7,3.8,2.6,4.5,4.5c0.7,1.8,1.3,3.8,1.3,5.9c0,8.6,0,33.7,0,33.7v2v6.4c0,2.8-1,5.5-3,7.8c-1.8,2-4.6,2.3-7.4,2.3
			c-2.6,0-4.9-0.9-6.7-2.8C77,88.6,76,86.3,76,83.4v-8.9v-1.8V62.4l-6,7.2c0,0,0,0,0,0l-0.8,0.9L53.7,89.7c-0.5,0.7-1.3,1.4-2.4,2.2
			c-1.5,0.9-3.2,1.4-5.1,1.4c-1.6,0-3-0.3-4.4-1c-1.4-0.7-2.5-1.6-3.5-2.8c-1-1.2-1.7-2.6-2-4.1c-0.1-0.9-0.3-1.5-0.3-1.9V12
			C21,15.2,9,26.5,9,42.3v41.2c0,17.1,14.9,29.2,31.1,30.9c6.5,0.7,9.1,1.1,26.2,1.1c15.8,0,19.5-0.2,25.9-1.1
			c15.8-2.3,30.7-13.8,30.7-30.9V43.8C123,33,117.9,23.4,110,17.3z"/>
	</g>
</g>
</svg>
