<?xml version="1.0" encoding="utf-8"?>
<!-- Generator: Adobe Illustrator 15.0.0, SVG Export Plug-In . SVG Version: 6.00 Build 0)  -->
<!DOCTYPE svg PUBLIC "-//W3C//DTD SVG 1.1//EN" "http://www.w3.org/Graphics/SVG/1.1/DTD/svg11.dtd">
<svg version="1.1" id="Слой_1" xmlns="http://www.w3.org/2000/svg" xmlns:xlink="http://www.w3.org/1999/xlink" x="0px" y="0px"
	 width="400px" height="400px" viewBox="0 0 400 400" enable-background="new 0 0 400 400" xml:space="preserve">
<g>
	<circle fill="none" cx="200" cy="200" r="200"/>
</g>
<rect x="459" y="108" fill="none" width="234" height="99"/>
<text transform="matrix(1 0 0 1 486.1934 124.9917)"><tspan x="0" y="0" font-family="'a_SimplerGr'" font-size="24">a_SimplerGrSl </tspan><tspan x="39.107" y="28.8" font-family="'a_SimplerGr'" font-size="24">Regular</tspan></text>
<g>
	<path fill="#FFFFFF" d="M200,20c99.411,0,180,80.588,180,180c0,99.411-80.589,180-180,180c-99.412,0-180-80.589-180-180
		C20,100.588,100.588,20,200,20 M200,10c-25.646,0-50.529,5.025-73.96,14.935c-22.626,9.57-42.945,23.269-60.391,40.714
		s-31.144,37.764-40.714,60.391C15.025,149.471,10,174.354,10,200s5.025,50.529,14.935,73.96
		c9.57,22.626,23.269,42.944,40.714,60.391c17.446,17.445,37.764,31.144,60.391,40.714C149.471,384.975,174.354,390,200,390
		s50.529-5.025,73.96-14.936c22.626-9.57,42.944-23.269,60.391-40.714c17.445-17.446,31.144-37.765,40.714-60.391
		C384.975,250.529,390,225.646,390,200s-5.025-50.529-14.936-73.96c-9.57-22.626-23.269-42.945-40.714-60.391
		c-17.446-17.446-37.765-31.144-60.391-40.714C250.529,15.025,225.646,10,200,10L200,10z"/>
</g>
<g>
	<path fill="#FFFFFF" d="M159.361,270.01h-72.58v-48.059h48.848v-5.93H86.781v-57.355l31.643-28.676h72.184v47.266h-49.045v1.779
		h49.045v57.748L159.361,270.01z M88.956,267.834h69.339l30.138-32.039v-54.583h-49.243v-6.131h49.243v-42.915h-69.142
		l-30.335,27.49v54.188h48.848v10.283H88.956V267.834z M155.603,261.703H95.087V230.26h49.046v-22.549H95.087v-45.287l26.698-24.127
		h60.517v30.457h-49.046v18.788h49.046v45.883L155.603,261.703z"/>
	<path fill="#FFFFFF" d="M203.855,270.01V129.99h109.363v96.904l-36.585,43.115H203.855z M206.032,132.166v135.668h69.414
		l35.601-41.531v-94.137h-50.63v80.293l-3.759,4.549v-84.842H206.032z M212.358,261.703V138.296h38.169v96.512l16.018-19.977
		v-76.536h38.171v85.831l-32.236,37.576H212.358z"/>
</g>
</svg>
