<svg version="1.1" id="phone-svg" xmlns="http://www.w3.org/2000/svg" xmlns:xlink="http://www.w3.org/1999/xlink" x="0px" y="0px"
	 viewBox="0 0 14 14" style="enable-background:new 0 0 14 14;" xml:space="preserve">

<g id="XMLID_2_">
	<path fill="#c0ac8d" id="XMLID_8_" class="st0" d="M7.3,6.5"/>
	<g id="XMLID_3_">
		<path fill="#c0ac8d" id="XMLID_7_" class="st0" d="M1.3,1.4C0.5,2.2,0.6,3.8,1.5,5.7c0.6,1.2,1.6,2.6,2.8,3.8s2.6,2.2,3.8,2.8
			c1.8,0.9,3.4,1,4.2,0.2"/>
		<path fill="#c0ac8d" id="XMLID_6_" class="st0" d="M4.6,5.3l1.4-0.7c0.5-0.3,0.9-0.8,0.8-1.4c0-0.3-0.2-0.6-0.4-0.8L5.5,1.6L4.3,0.4
			C4,0,3.4-0.1,2.9,0.1C2.7,0.1,2.5,0.2,2.3,0.4l-1,1"/>
		<path fill="#c0ac8d" id="XMLID_5_" class="st0" d="M12.4,12.5l1-1c0.2-0.2,0.3-0.4,0.4-0.6c0.1-0.5,0-1-0.4-1.4l-1.2-1.2l-0.8-0.8
			c-0.2-0.2-0.5-0.4-0.8-0.4C10,7,9.4,7.3,9.2,7.9L8.5,9.2"/>
		<path fill="#c0ac8d" id="XMLID_4_" class="st0" d="M4.6,5.3c0.5,0.7,1.1,1.4,1.8,2.1s1.4,1.3,2.1,1.8"/>
	</g>
</g>
</svg>
