<?xml version="1.0" encoding="iso-8859-1"?>
<!-- Generator: Adobe Illustrator 17.1.0, SVG Export Plug-In . SVG Version: 6.00 Build 0)  -->
<!DOCTYPE svg PUBLIC "-//W3C//DTD SVG 1.1//EN" "http://www.w3.org/Graphics/SVG/1.1/DTD/svg11.dtd">
<svg version="1.1" id="Capa_1" xmlns="http://www.w3.org/2000/svg" xmlns:xlink="http://www.w3.org/1999/xlink" x="0px" y="0px"
	 viewBox="0 0 475.801 475.801" style="enable-background:new 0 0 475.801 475.801;" xml:space="preserve">
<path d="M400.834,275.727h-24.199c-0.229,0-0.454,0.014-0.677,0.034h-5.041v-17.086c40.947-25.408,66.207-70.553,66.207-118.876
	C437.124,62.714,374.41,0,297.325,0S157.526,62.714,157.526,139.799c0,48.322,25.26,93.468,66.207,118.876v17.085h-5.041
	c-0.223-0.02-0.448-0.034-0.677-0.034h-24.199c-4.143,0-7.5,3.357-7.5,7.5s3.357,7.5,7.5,7.5h16.699v5.155h-64.311v-65.511
	c0-3.349-2.22-6.291-5.439-7.212l-92.528-26.437c-2.262-0.647-4.697-0.194-6.577,1.224c-1.879,1.417-2.983,3.634-2.983,5.987
	v264.367c0,2.354,1.104,4.57,2.983,5.987c1.316,0.993,2.905,1.513,4.517,1.513c0.689,0,1.383-0.095,2.061-0.289l92.528-26.437
	c3.22-0.921,5.439-3.863,5.439-7.212v-65.511h65.692c3.027,7.903,10.691,13.528,19.646,13.528h131.563
	c11.595,0,21.028-9.434,21.028-21.028v-78.126h16.699c4.143,0,7.5-3.357,7.5-7.5S404.977,275.727,400.834,275.727z M238.733,261.932
	h62.683c4.143,0,7.5-3.357,7.5-7.5s-3.357-7.5-7.5-7.5H233.31c-37.537-22.485-60.784-63.342-60.784-107.133
	C172.526,70.984,228.511,15,297.325,15s124.799,55.984,124.799,124.799c0,44.442-23.934,85.879-62.46,108.139
	c-0.063,0.037-0.121,0.08-0.183,0.118c-0.122,0.075-0.243,0.151-0.36,0.233c-0.102,0.071-0.199,0.146-0.296,0.221
	c-0.091,0.07-0.181,0.141-0.268,0.215c-0.109,0.093-0.213,0.189-0.316,0.288c-0.069,0.066-0.138,0.132-0.204,0.2
	c-0.105,0.108-0.205,0.22-0.303,0.333c-0.06,0.069-0.119,0.139-0.176,0.211c-0.092,0.115-0.179,0.232-0.263,0.352
	c-0.057,0.082-0.114,0.163-0.168,0.247c-0.073,0.113-0.143,0.228-0.209,0.345c-0.057,0.099-0.112,0.198-0.164,0.299
	c-0.055,0.107-0.107,0.216-0.157,0.326c-0.052,0.114-0.102,0.229-0.148,0.346c-0.042,0.106-0.08,0.212-0.117,0.32
	c-0.042,0.122-0.082,0.244-0.117,0.368c-0.033,0.114-0.061,0.229-0.088,0.344c-0.028,0.117-0.055,0.234-0.077,0.353
	c-0.026,0.136-0.045,0.272-0.063,0.41c-0.013,0.1-0.027,0.199-0.036,0.299c-0.015,0.167-0.021,0.335-0.025,0.503
	c-0.001,0.055-0.008,0.109-0.008,0.165v21.329H238.733V261.932z M369.135,368.853c0,3.324-2.704,6.028-6.028,6.028H231.544
	c-3.324,0-6.028-2.704-6.028-6.028c0-4.143-3.357-7.5-7.5-7.5h-79.311c-4.143,0-7.5,3.357-7.5,7.5v67.354l-77.528,22.151v-244.48
	l77.528,22.151v67.354v19.517c0,4.143,3.357,7.5,7.5,7.5s7.5-3.357,7.5-7.5v-12.017h64.311v22.137c0,4.143,3.357,7.5,7.5,7.5
	s7.5-3.357,7.5-7.5v-42.258h143.619V368.853z M203.984,125.354c-0.728,4.744-1.097,9.604-1.097,14.445c0,4.143-3.357,7.5-7.5,7.5
	s-7.5-3.357-7.5-7.5c0-5.6,0.428-11.226,1.271-16.721c0.627-4.092,4.448-6.9,8.551-6.275
	C201.803,117.431,204.612,121.259,203.984,125.354z M304.825,37.861c0,4.143-3.357,7.5-7.5,7.5
	c-33.609,0-64.956,18.094-81.807,47.222c-1.391,2.402-3.909,3.745-6.499,3.745c-1.274,0-2.566-0.325-3.749-1.009
	c-3.585-2.074-4.811-6.662-2.736-10.248c19.523-33.746,55.845-54.71,94.791-54.71C301.468,30.361,304.825,33.719,304.825,37.861z"/>
<g>
</g>
<g>
</g>
<g>
</g>
<g>
</g>
<g>
</g>
<g>
</g>
<g>
</g>
<g>
</g>
<g>
</g>
<g>
</g>
<g>
</g>
<g>
</g>
<g>
</g>
<g>
</g>
<g>
</g>
</svg>
