<?xml version="1.0" standalone="no"?>
<!DOCTYPE svg PUBLIC "-//W3C//DTD SVG 20010904//EN"
 "http://www.w3.org/TR/2001/REC-SVG-20010904/DTD/svg10.dtd">
<svg version="1.0" xmlns="http://www.w3.org/2000/svg"
 width="345.000000pt" height="345.000000pt" viewBox="0 0 345.000000 345.000000"
 preserveAspectRatio="xMidYMid meet">
<metadata>
Created by potrace 1.11, written by Peter Selinger 2001-2013
</metadata>
<g transform="translate(0.000000,345.000000) scale(0.100000,-0.100000)"
fill="#000000" stroke="none">
<path d="M2305 3313 c-87 -16 -211 -50 -283 -80 -74 -30 -196 -94 -212 -112
-3 -4 -22 -19 -44 -35 -144 -108 -267 -293 -317 -481 -20 -73 -22 -112 -26
-444 l-5 -364 42 49 c23 27 61 72 85 99 23 28 118 140 209 250 352 421 358
428 412 464 59 39 111 53 188 52 117 -1 179 -38 225 -134 17 -34 34 -75 38
-92 4 -16 9 -342 10 -723 3 -677 3 -694 -18 -754 -11 -33 -31 -77 -44 -96 -26
-38 -97 -91 -124 -93 -9 0 -25 -2 -36 -5 -42 -8 -122 -6 -166 6 -95 24 -189
128 -203 225 -2 17 -5 181 -5 365 -2 301 -3 333 -17 315 -8 -11 -34 -42 -57
-69 -23 -27 -127 -153 -231 -280 -103 -127 -203 -249 -221 -271 -18 -22 -67
-81 -108 -131 -108 -131 -160 -162 -271 -162 -150 0 -279 109 -299 253 -4 22
-6 526 -7 1121 l0 1081 -53 -13 c-143 -37 -290 -107 -404 -193 -129 -97 -206
-190 -272 -326 -89 -183 -86 -144 -86 -1010 0 -858 -3 -816 80 -990 85 -178
225 -323 411 -428 134 -75 314 -129 479 -143 33 -2 71 -7 85 -9 128 -25 1327
-25 1369 0 4 1 33 6 66 9 33 4 67 9 75 11 8 2 26 6 40 9 111 21 278 88 383
154 230 143 366 321 436 571 20 71 20 97 20 790 0 687 0 720 -20 811 -87 399
-400 708 -802 791 -50 11 -281 19 -322 12z"/>
</g>
</svg>
