<?xml version="1.0" encoding="utf-8"?>
<!-- Generator: Adobe Illustrator 18.0.0, SVG Export Plug-In . SVG Version: 6.00 Build 0)  -->
<!DOCTYPE svg PUBLIC "-//W3C//DTD SVG 1.1//EN" "http://www.w3.org/Graphics/SVG/1.1/DTD/svg11.dtd">
<svg version="1.1" id="Layer_1" xmlns="http://www.w3.org/2000/svg" xmlns:xlink="http://www.w3.org/1999/xlink" x="0px" y="0px"
	 viewBox="0 0 50 50" enable-background="new 0 0 50 50" xml:space="preserve">
<g>
	<g>
		<path fill="#201600" d="M25,3c12.1,0,22,9.9,22,22s-9.9,22-22,22S3,37.1,3,25S12.9,3,25,3 M25,0C11.2,0,0,11.2,0,25s11.2,25,25,25
			s25-11.2,25-25S38.8,0,25,0L25,0z"/>
	</g>
	<g>
		<path d="M32.9,23.6H17.1c-0.5,0-0.7,0.4-0.6,0.8l1.7,7.2c0.1,0.4,0.6,0.8,1,0.8h11.7c0.5,0,0.9-0.4,1-0.8l1.7-7.2
			C33.7,23.9,33.4,23.6,32.9,23.6z"/>
		<path d="M33.7,20.6h-1.9c-0.1,0-0.2-0.1-0.2-0.1l-4.8-4.8c-0.1-0.1-0.4-0.1-0.5,0l-0.4,0.4c-0.1,0.1-0.1,0.4,0,0.5l3.9,3.9
			c0,0,0.1,0.1-0.1,0.1c-2.4,0-7,0-9.4,0c-0.1,0,0-0.1,0-0.1l3.9-3.9c0.1-0.1,0.1-0.4,0-0.5l-0.4-0.4c-0.1-0.1-0.4-0.1-0.5,0
			l-4.8,4.8c0,0-0.1,0.1-0.2,0.1h-2c-0.2,0-0.4,0.2-0.3,0.4l0.2,1c0,0.2,0.3,0.4,0.5,0.4h16.7c0.2,0,0.5-0.2,0.5-0.4l0.2-1
			C34.1,20.8,33.9,20.6,33.7,20.6z"/>
	</g>
</g>
<g>
	<g>
		<path fill="#201600" d="M95,3c12.1,0,22,9.9,22,22s-9.9,22-22,22s-22-9.9-22-22S82.9,3,95,3 M95,0C81.2,0,70,11.2,70,25
			s11.2,25,25,25s25-11.2,25-25S108.8,0,95,0L95,0z"/>
	</g>
	<g>
		<g>
			<path fill="#010002" d="M105.6,23.5c-2.2-1.8-5.9-4.4-10.6-4.5c0,0,0,0,0,0s0,0,0,0c-4.7,0.1-8.4,2.7-10.6,4.5
				c-0.1,0.1-0.8,0.6-0.8,1.4c0,0.5,0.2,0.9,0.6,1.2c1.8,1.7,5.8,4.9,10.9,4.9v0c0,0,0,0,0,0c0,0,0,0,0,0v0c5.2,0,9.1-3.1,10.9-4.9
				c0.3-0.3,0.6-0.7,0.6-1.2C106.5,24.2,105.7,23.6,105.6,23.5z M95,29.6c-2.5,0-4.6-2.1-4.6-4.6c0-2.5,2-4.6,4.6-4.6
				c2.5,0,4.6,2.1,4.6,4.6S97.5,29.6,95,29.6z"/>
			<path fill="#010002" d="M95,23.2C95,23.2,95,23.2,95,23.2C95,23.2,95,23.2,95,23.2L95,23.2c-1,0-1.8,0.8-1.8,1.8
				c0,1,0.8,1.8,1.8,1.8v0c0,0,0,0,0,0c0,0,0,0,0,0v0c1,0,1.8-0.8,1.8-1.8C96.8,24,96,23.2,95,23.2z"/>
		</g>
	</g>
</g>
</svg>
