<?xml version="1.0" encoding="utf-8"?>
<!-- Generator: Adobe Illustrator 18.1.1, SVG Export Plug-In . SVG Version: 6.00 Build 0)  -->
<svg version="1.1" id="Capa_1" xmlns="http://www.w3.org/2000/svg" xmlns:xlink="http://www.w3.org/1999/xlink" x="0px" y="0px"
	 viewBox="0 0 114 114" enable-background="new 0 0 114 114" xml:space="preserve">
<g>
	<path d="M47,95.9C47,95.9,47,95.9,47,95.9l-6.7-1.7c-0.6-0.2-1-0.5-1.1-0.6l0-3.6c0,0,0,0,0,0c2.3-2.7,3.5-6.2,3.5-9.9v-2.7
		c2.3-7.4,0.7-13.8-0.2-15.7c0,0,0,0,0,0c0,0,0-0.1-0.1-0.1c0,0,0,0,0-0.1c0,0,0-0.1-0.1-0.1c0,0,0,0,0-0.1c0,0,0,0-0.1-0.1
		c0,0,0,0-0.1-0.1c0,0,0,0,0,0c0,0-0.1-0.1-0.1-0.1c0,0,0,0,0,0c0,0-0.1,0-0.1-0.1c0,0,0,0-0.1,0c0,0-0.1,0-0.1-0.1c0,0,0,0-0.1,0
		c0,0-0.1,0-0.1,0c0,0-0.1,0-0.1,0c0,0,0,0-0.1,0c0,0-0.1,0-0.1,0c0,0,0,0-0.1,0c0,0-0.1,0-0.1,0c0,0-0.1,0-0.1,0c0,0-0.1,0-0.1,0
		c0,0-0.1,0-0.1,0c0,0,0,0-0.1,0c0,0-0.1,0-0.1,0c0,0,0,0-0.1,0c0,0-0.1,0-0.1,0c0,0,0,0,0,0c-1.7,0.2-3.8-0.3-6-0.8
		c-3.9-0.9-8.3-2-12.2,0.8c-3.7,0.3-6.4,3.5-6.4,7.7c0,3.1,1.4,8.6,1.8,9.8v1.5c0,3.8,1.3,7.4,3.5,10l0,3.9
		c-0.1,0.2-0.5,0.4-1.1,0.6l-6.6,1.7c0,0,0,0,0,0c-4.2,1.2-6.4,5.3-6.4,8.8v1.9c0,2.1,1.8,3.8,4.1,3.8l19,0c0,0,0,0,0,0s0,0,0,0
		l19,0c2.3,0,4.1-1.7,4.1-3.8v-1.9C53.5,101.2,51.3,97.1,47,95.9z M30.3,99.5l-6.2-3.7c0.5-0.6,0.8-1.3,0.8-2.2l0-0.8
		c1.6,1,3.5,1.5,5.4,1.5c1.9,0,3.7-0.5,5.4-1.4l0,0.7c0,0.9,0.3,1.6,0.8,2.2L30.3,99.5z M21.4,79c0-1.8,0.7-4.4,1.3-6
		c8.1,0.2,14.2,2.1,16.5,3v1c0,0,0,0,0,0v3c0,3.1-1.2,6-3,8c0,0,0,0,0,0c-1.6,1.7-3.7,2.8-5.9,2.8c-4.7,0-8.9-5.2-8.9-11.1V79z
		 M23.2,64.1C23.2,64.1,23.2,64.1,23.2,64.1c0.1,0,0.1,0,0.2,0c0,0,0,0,0.1,0c0,0,0.1,0,0.1,0c0,0,0.1,0,0.1,0c0,0,0.1,0,0.1,0
		c0,0,0.1,0,0.1,0c0,0,0.1,0,0.1,0c0,0,0.1,0,0.1,0c0,0,0,0,0.1,0c0,0,0.1,0,0.1-0.1c0,0,0,0,0.1,0c0,0,0.1-0.1,0.1-0.1c0,0,0,0,0,0
		c2.6-2.1,6-1.3,9.6-0.5c1.9,0.5,3.9,0.9,5.9,0.9c0.5,1.7,0.9,4.8,0.4,8.4c-2.9-1.1-9.7-3.1-18.7-3.1c0,0,0,0,0,0c0,0-0.1,0-0.1,0
		c0,0,0,0-0.1,0c0,0-0.1,0-0.1,0c0,0-0.1,0-0.1,0c0,0,0,0-0.1,0c0,0-0.1,0-0.1,0c0,0,0,0,0,0c0,0-0.1,0-0.1,0c0,0,0,0,0,0
		c0,0-0.1,0-0.1,0.1c0,0,0,0,0,0c0,0-0.1,0-0.1,0.1c0,0-0.1,0-0.1,0.1c0,0,0,0,0,0c0,0-0.1,0.1-0.1,0.1c0,0,0,0,0,0
		c0,0-0.1,0.1-0.1,0.1c0,0,0,0,0,0c0,0,0,0.1-0.1,0.1c0,0,0,0,0,0.1c0,0,0,0,0,0.1c0,0,0,0.1-0.1,0.1c0,0,0,0,0,0.1c0,0,0,0,0,0.1
		c-0.1-0.8-0.2-1.6-0.2-2.2C19.7,66.4,20.6,64.1,23.2,64.1z M11.2,106.9c-0.4,0-0.5-0.2-0.5-0.3v-1.9c0-2.1,1.3-4.7,3.8-5.4l6-1.6
		l8,4.8v4.3L11.2,106.9z M49.9,106.6c0,0-0.2,0.3-0.5,0.3l-17.3,0v-4.3l8.1-4.8l5.9,1.5c2.5,0.7,3.8,3.2,3.8,5.4L49.9,106.6
		L49.9,106.6z"/>
	<path d="M100.5,95.9C100.5,95.9,100.4,95.9,100.5,95.9l-6.7-1.7c-0.6-0.2-1-0.5-1.1-0.6l0-3.6c0,0,0,0,0,0c2.3-2.7,3.5-6.2,3.5-9.9
		v-2.7c2.3-7.4,0.7-13.8-0.2-15.7c0,0,0,0,0,0c0,0,0-0.1-0.1-0.1c0,0,0,0,0-0.1c0,0,0-0.1-0.1-0.1c0,0,0,0,0-0.1c0,0,0,0-0.1-0.1
		c0,0,0,0-0.1-0.1c0,0,0,0,0,0c0,0,0-0.1-0.1-0.1c0,0,0,0,0,0c0,0-0.1,0-0.1-0.1c0,0,0,0-0.1,0c0,0-0.1,0-0.1-0.1c0,0,0,0-0.1,0
		c0,0-0.1,0-0.1,0c0,0-0.1,0-0.1,0c0,0,0,0-0.1,0c0,0-0.1,0-0.1,0c0,0,0,0-0.1,0c0,0-0.1,0-0.1,0c0,0-0.1,0-0.1,0c0,0-0.1,0-0.1,0
		c0,0-0.1,0-0.1,0c0,0,0,0-0.1,0c0,0-0.1,0-0.1,0c0,0,0,0-0.1,0c0,0-0.1,0-0.1,0c0,0,0,0,0,0c-1.7,0.2-3.8-0.3-6-0.8
		c-3.9-0.9-8.3-2-12.2,0.8c-3.7,0.3-6.4,3.5-6.4,7.7c0,3.1,1.4,8.6,1.8,9.8v1.5c0,3.8,1.3,7.4,3.5,10l0,3.9
		c-0.1,0.2-0.5,0.4-1.1,0.6L67,95.9c0,0,0,0,0,0c-4.2,1.2-6.4,5.3-6.4,8.8v1.9c0,2.1,1.8,3.8,4.1,3.8l19,0c0,0,0,0,0,0c0,0,0,0,0,0
		l19,0c2.3,0,4.1-1.7,4.1-3.8v-1.9C106.9,101.2,104.7,97.1,100.5,95.9z M83.7,99.5l-6.2-3.7c0.5-0.6,0.8-1.3,0.8-2.2l0-0.8
		c1.6,1,3.5,1.5,5.4,1.5c1.9,0,3.7-0.5,5.4-1.4l0,0.7c0,0.9,0.3,1.6,0.8,2.2L83.7,99.5z M74.9,79c0-1.8,0.7-4.4,1.3-6
		c8.1,0.2,14.2,2.1,16.5,3v1c0,0,0,0,0,0v3c0,3.1-1.2,6-3,8c0,0,0,0,0,0c-1.6,1.7-3.7,2.8-5.9,2.8c-4.7,0-8.9-5.2-8.9-11.1V79z
		 M76.6,64.1C76.6,64.1,76.6,64.1,76.6,64.1c0.1,0,0.1,0,0.2,0c0,0,0,0,0.1,0c0,0,0.1,0,0.1,0c0,0,0.1,0,0.1,0c0,0,0.1,0,0.1,0
		c0,0,0.1,0,0.1,0c0,0,0.1,0,0.1,0c0,0,0.1,0,0.1,0c0,0,0.1,0,0.1,0c0,0,0.1,0,0.1-0.1c0,0,0,0,0.1,0c0,0,0.1-0.1,0.1-0.1
		c0,0,0,0,0,0c2.6-2.1,6-1.3,9.6-0.5c1.9,0.5,3.9,0.9,5.9,0.9c0.5,1.7,0.9,4.8,0.4,8.4c-2.9-1.1-9.7-3.1-18.7-3.1c0,0,0,0,0,0
		c0,0-0.1,0-0.1,0c0,0,0,0-0.1,0c0,0-0.1,0-0.1,0c0,0-0.1,0-0.1,0c0,0,0,0-0.1,0c0,0-0.1,0-0.1,0c0,0,0,0,0,0c0,0-0.1,0-0.1,0
		c0,0,0,0,0,0c0,0-0.1,0-0.1,0.1c0,0,0,0,0,0c0,0-0.1,0-0.1,0.1c0,0-0.1,0-0.1,0.1c0,0,0,0,0,0c0,0-0.1,0.1-0.1,0.1c0,0,0,0,0,0
		c0,0-0.1,0.1-0.1,0.1c0,0,0,0,0,0c0,0,0,0.1-0.1,0.1c0,0,0,0,0,0.1c0,0,0,0,0,0.1c0,0,0,0.1-0.1,0.1c0,0,0,0,0,0.1c0,0,0,0,0,0.1
		c-0.1-0.8-0.2-1.6-0.2-2.2C73.1,66.4,74,64.1,76.6,64.1z M64.7,106.9c-0.4,0-0.5-0.2-0.5-0.3v-1.9c0-2.1,1.3-4.7,3.8-5.4l6-1.6
		l8,4.8v4.3L64.7,106.9z M103.3,106.6c0,0-0.2,0.3-0.5,0.3l-17.3,0v-4.3l8.1-4.8l5.9,1.5c2.5,0.7,3.8,3.2,3.8,5.4V106.6z"/>
	<path d="M105.1,10.7H69.5c-1,0-1.8,0.8-1.8,1.8s0.8,1.8,1.8,1.8h35.6c2.9,0,5.3,2.4,5.3,5.3v24.9c0,2.9-2.4,5.3-5.3,5.3H67.7
		c-1,0-1.8,0.8-1.8,1.8v4.6L60,50.4c-0.7-0.7-1.8-0.7-2.5,0c-0.7,0.7-0.7,1.8,0,2.5l8.9,8.9c0.3,0.3,0.8,0.5,1.3,0.5
		c0.2,0,0.5,0,0.7-0.1c0.7-0.3,1.1-0.9,1.1-1.6v-7.1h35.6c4.9,0,8.9-4,8.9-8.9V19.6C114,14.7,110,10.7,105.1,10.7z"/>
	<path d="M64.1,37.4V12.5c0-4.9-4-8.9-8.9-8.9H8.9C4,3.6,0,7.6,0,12.5v24.9c0,4.9,4,8.9,8.9,8.9h24.9v7.1c0,0.7,0.4,1.4,1.1,1.6
		c0.2,0.1,0.5,0.1,0.7,0.1c0.5,0,0.9-0.2,1.3-0.5l8.4-8.4h9.9C60.1,46.3,64.1,42.3,64.1,37.4z M60.6,37.4c0,2.9-2.4,5.3-5.3,5.3
		H44.5c-0.5,0-0.9,0.2-1.3,0.5l-5.9,5.9v-4.6c0-1-0.8-1.8-1.8-1.8H8.9c-2.9,0-5.3-2.4-5.3-5.3V12.5c0-2.9,2.4-5.3,5.3-5.3h46.3
		c2.9,0,5.3,2.4,5.3,5.3V37.4z"/>
	<path d="M10.7,16H16c1,0,1.8-0.8,1.8-1.8S17,12.5,16,12.5h-5.3c-1,0-1.8,0.8-1.8,1.8S9.7,16,10.7,16z"/>
	<path d="M53.4,12.5H23.2c-1,0-1.8,0.8-1.8,1.8s0.8,1.8,1.8,1.8h30.3c1,0,1.8-0.8,1.8-1.8S54.4,12.5,53.4,12.5z"/>
	<path d="M53.4,19.6H10.7c-1,0-1.8,0.8-1.8,1.8s0.8,1.8,1.8,1.8h42.8c1,0,1.8-0.8,1.8-1.8S54.4,19.6,53.4,19.6z"/>
	<path d="M53.4,26.7h-5.3c-1,0-1.8,0.8-1.8,1.8s0.8,1.8,1.8,1.8h5.3c1,0,1.8-0.8,1.8-1.8S54.4,26.7,53.4,26.7z"/>
	<path d="M10.7,30.3H41c1,0,1.8-0.8,1.8-1.8S42,26.7,41,26.7H10.7c-1,0-1.8,0.8-1.8,1.8S9.7,30.3,10.7,30.3z"/>
	<path d="M53.4,33.8H10.7c-1,0-1.8,0.8-1.8,1.8s0.8,1.8,1.8,1.8h42.8c1,0,1.8-0.8,1.8-1.8S54.4,33.8,53.4,33.8z"/>
	<path d="M69.5,23.2h5.3c1,0,1.8-0.8,1.8-1.8s-0.8-1.8-1.8-1.8h-5.3c-1,0-1.8,0.8-1.8,1.8S68.5,23.2,69.5,23.2z"/>
	<path d="M103.3,23.2c1,0,1.8-0.8,1.8-1.8s-0.8-1.8-1.8-1.8H81.9c-1,0-1.8,0.8-1.8,1.8s0.8,1.8,1.8,1.8H103.3z"/>
	<path d="M69.5,30.3h33.8c1,0,1.8-0.8,1.8-1.8s-0.8-1.8-1.8-1.8H69.5c-1,0-1.8,0.8-1.8,1.8S68.5,30.3,69.5,30.3z"/>
	<path d="M103.3,33.8H98c-1,0-1.8,0.8-1.8,1.8s0.8,1.8,1.8,1.8h5.3c1,0,1.8-0.8,1.8-1.8S104.3,33.8,103.3,33.8z"/>
	<path d="M69.5,37.4h21.4c1,0,1.8-0.8,1.8-1.8s-0.8-1.8-1.8-1.8H69.5c-1,0-1.8,0.8-1.8,1.8S68.5,37.4,69.5,37.4z"/>
	<path d="M69.5,44.5h33.8c1,0,1.8-0.8,1.8-1.8s-0.8-1.8-1.8-1.8H69.5c-1,0-1.8,0.8-1.8,1.8S68.5,44.5,69.5,44.5z"/>
</g>
</svg>
