<?xml version="1.0" encoding="utf-8"?>
<!-- Generator: Adobe Illustrator 18.0.0, SVG Export Plug-In . SVG Version: 6.00 Build 0)  -->
<!DOCTYPE svg PUBLIC "-//W3C//DTD SVG 1.1//EN" "http://www.w3.org/Graphics/SVG/1.1/DTD/svg11.dtd">
<svg version="1.1" id="inst-circle" xmlns="http://www.w3.org/2000/svg" xmlns:xlink="http://www.w3.org/1999/xlink" x="0px" y="0px"
	 viewBox="0 0 35 35" enable-background="new 0 0 35 35" xml:space="preserve">
<g>
	<g>
		<path id="Facebook" d="M-94.3,13.3c0,0.3,0,1.9,0,1.9h-1.4v2.3h1.4v6.8h2.8v-6.8h1.9c0,0,0.2-1.1,0.3-2.3c-0.2,0-2.1,0-2.1,0
			s0-1.3,0-1.6c0-0.2,0.3-0.6,0.6-0.6c0.3,0,0.9,0,1.5,0c0-0.3,0-1.4,0-2.4c-0.8,0-1.7,0-2.1,0C-94.4,10.7-94.3,13-94.3,13.3z"/>
	</g>
	<path d="M-92.5,0c-9.6,0-17.5,7.9-17.5,17.5S-102.1,35-92.5,35S-75,27.1-75,17.5S-82.9,0-92.5,0z M-92.5,33
		C-101,33-108,26-108,17.5S-101,2-92.5,2S-77,9-77,17.5S-84,33-92.5,33z"/>
</g>
<g>
	<path d="M-37.5,0C-47.1,0-55,7.9-55,17.5S-47.1,35-37.5,35S-20,27.1-20,17.5S-27.9,0-37.5,0z M-37.5,33C-46,33-53,26-53,17.5
		S-46,2-37.5,2S-22,9-22,17.5S-29,33-37.5,33z"/>
	<g>
		<g>
			<path fill="#010002" d="M-29.9,13.3c-0.5,0.2-1,0.4-1.6,0.4c0.6-0.3,1-0.9,1.2-1.5c-0.5,0.3-1.1,0.6-1.8,0.7
				c-0.5-0.5-1.2-0.9-2-0.9c-1.5,0-2.8,1.3-2.8,2.8c0,0.2,0,0.4,0.1,0.6c-2.3-0.1-4.4-1.2-5.8-2.9c-0.2,0.4-0.4,0.9-0.4,1.4
				c0,1,0.5,1.8,1.2,2.3c-0.5,0-0.9-0.1-1.3-0.4v0c0,1.4,1,2.5,2.2,2.7c-0.2,0.1-0.5,0.1-0.7,0.1c-0.2,0-0.4,0-0.5-0.1
				c0.4,1.1,1.4,1.9,2.6,1.9c-1,0.8-2.2,1.2-3.5,1.2c-0.2,0-0.4,0-0.7,0c1.2,0.8,2.7,1.3,4.3,1.3c5.2,0,8-4.3,8-8l0-0.4
				C-30.8,14.3-30.3,13.8-29.9,13.3z"/>
		</g>
	</g>
</g>
<g>
	<path d="M17.5,0C7.9,0,0,7.9,0,17.5S7.9,35,17.5,35S35,27.1,35,17.5S27.1,0,17.5,0z M17.5,33C9,33,2,26,2,17.5S9,2,17.5,2
		S33,9,33,17.5S26,33,17.5,33z"/>
	<g>
		<path d="M22.2,11.2h-9.4c-0.9,0-1.6,0.7-1.6,1.6v9.4c0,0.9,0.7,1.6,1.6,1.6h9.4c0.9,0,1.6-0.7,1.6-1.6v-9.4
			C23.8,11.9,23.1,11.2,22.2,11.2z M17.5,15.7c1,0,1.8,0.8,1.8,1.8c0,1-0.8,1.8-1.8,1.8c-1,0-1.8-0.8-1.8-1.8
			C15.7,16.5,16.5,15.7,17.5,15.7z M22.3,21.5c0,0.4-0.4,0.8-0.8,0.8h-8c-0.4,0-0.9-0.4-0.9-0.8v-4c0-0.4,0.4-0.8,0.9-0.8H14
			c0.1,0,0.2,0,0.2,0.1c0.1,0.1,0.1,0.1,0.1,0.2c0,0.1,0,0.3,0,0.4c0,1.8,1.5,3.3,3.3,3.3c1.8,0,3.3-1.5,3.3-3.3c0-0.1,0-0.3,0-0.4
			c0-0.1,0-0.2,0.1-0.2c0.1-0.1,0.1-0.1,0.2-0.1h0.5c0.4,0,0.8,0.4,0.8,0.8L22.3,21.5L22.3,21.5L22.3,21.5z M22.3,14.2L22.3,14.2
			c0,0.4-0.4,0.8-0.8,0.8h-0.8c-0.4,0-0.8-0.4-0.8-0.8v-0.8c0-0.4,0.4-0.8,0.8-0.8h0.8c0.4,0,0.8,0.4,0.8,0.8V14.2z"/>
	</g>
</g>
<g>
	<path d="M72.5,0C62.9,0,55,7.9,55,17.5S62.9,35,72.5,35S90,27.1,90,17.5S82.1,0,72.5,0z M72.5,33C64,33,57,26,57,17.5S64,2,72.5,2
		S88,9,88,17.5S81,33,72.5,33z"/>
	<g>
		<path fill="#030104" d="M77.5,19.6c-0.7-0.6-1.5-1-2.2-0.4l-0.4,0.4c-0.3,0.3-0.9,1.6-3.2-1.1c-2.3-2.6-0.9-3-0.6-3.3l0.4-0.4
			c0.7-0.6,0.4-1.4-0.1-2.2l-0.3-0.5c-0.5-0.8-1.1-1.3-1.8-0.7L69,11.8c-0.3,0.2-1.2,1-1.4,2.4c-0.3,1.7,0.6,3.7,2.4,5.8
			c1.9,2.2,3.7,3.2,5.4,3.2c1.4,0,2.3-0.8,2.6-1.1l0.4-0.3c0.7-0.6,0.3-1.3-0.5-1.9L77.5,19.6z"/>
	</g>
</g>
</svg>
