<?xml version="1.0" encoding="utf-8"?>
<!-- Generator: Adobe Illustrator 18.1.1, SVG Export Plug-In . SVG Version: 6.00 Build 0)  -->
<svg version="1.1" id="Capa_1" xmlns="http://www.w3.org/2000/svg" xmlns:xlink="http://www.w3.org/1999/xlink" x="0px" y="0px"
	 viewBox="0 0 114 114" enable-background="new 0 0 114 114" xml:space="preserve">
<path fill="#231F20" d="M32.1,29.6h50.1c0.8,0,1.5-0.7,1.5-1.5c0-11.7,0-23.7-20.5-25.6c-0.1-1.4-2.8-2.5-6-2.5s-5.9,1.1-6,2.5
	C30.6,4.5,30.6,16.5,30.6,28.1C30.6,29,31.3,29.6,32.1,29.6z M57.1,5.3c22.6,0,23.5,9.3,23.5,21.3H67.1c-0.1-2.3-2.8-4.2-6.1-4.2
	h-7.8c-3.3,0-6,1.9-6.1,4.2H33.6C33.7,14.6,34.6,5.3,57.1,5.3z M50.9,15.5l0.6-1l-0.6-1h-2.1c-0.8,0-1.5-0.7-1.5-1.5
	c0-0.8,0.7-1.5,1.5-1.5h3c0.5,0,1.1,0.3,1.3,0.8l1,1.8h6l1-1.8c0.3-0.5,0.8-0.8,1.3-0.8h3c0.8,0,1.5,0.7,1.5,1.5
	c0,0.8-0.7,1.5-1.5,1.5h-2.1l-0.6,1l0.6,1h2.1c0.8,0,1.5,0.7,1.5,1.5s-0.7,1.5-1.5,1.5h-3c-0.5,0-1.1-0.3-1.3-0.8l-1-1.8h-6l-1,1.8
	c-0.3,0.5-0.8,0.8-1.3,0.8h-3c-0.8,0-1.5-0.7-1.5-1.5s0.7-1.5,1.5-1.5H50.9z M26.2,37.2c0-1.2,0.1-4.7,2.6-5.6
	c2.4-0.9,5,1.6,5.4,2.1c0.6,0.6,0.5,1.6-0.1,2.2c-0.6,0.6-1.6,0.5-2.2-0.1c-0.8-0.8-1.8-1.4-2.1-1.4c0,0-0.5,0.4-0.6,2.8
	c-0.2,6.8,5.1,8.6,5.1,8.6c0.5,0.2,0.9,0.6,1,1l0.1,0.3c0,0.1,0,0.2,0,0.3c1.5,17.3,15.2,23,21.6,23s20.2-5.6,21.6-23
	c0-0.1,0-0.2,0-0.3l0.1-0.3c0.1-0.5,0.5-0.9,1-1c0.2-0.1,5.3-1.9,5.1-8.6c-0.1-2.4-0.6-2.8-0.6-2.9c-0.3-0.1-1.4,0.6-2.1,1.4
	c-0.6,0.6-1.5,0.6-2.2,0.1s-0.6-1.5-0.1-2.2c0.5-0.5,3-3.1,5.4-2.1c2.4,0.9,2.5,4.5,2.6,5.6c0.2,6.4-3.7,10-6.3,11.2
	C80,65.7,66.4,73.5,57.1,73.5s-22.8-7.8-24.6-25.1C29.9,47.1,26,43.6,26.2,37.2z M36,73.4c-4.9,1.8-26.3,11.2-26.3,38
	c0,0.8-0.7,1.5-1.5,1.5c-0.8,0-1.5-0.7-1.5-1.5C6.6,81,33,71.2,35.8,70.3l-0.1-2.1c0-0.8,0.6-1.6,1.4-1.6c0.8,0,1.6,0.6,1.6,1.4
	l0.6,10.6l6.8-3.2c0.8-0.4,1.7,0,2,0.7c0.4,0.8,0,1.7-0.7,2l-8.9,4.2c-0.2,0.1-0.4,0.1-0.6,0.1c-0.3,0-0.5-0.1-0.8-0.2
	c-0.4-0.3-0.7-0.7-0.7-1.2L36,73.4z M29.3,106.4v5.1c0,0.8-0.7,1.5-1.5,1.5s-1.5-0.7-1.5-1.5v-5.1c0-0.8,0.7-1.5,1.5-1.5
	S29.3,105.5,29.3,106.4z M107.4,111.5c0,0.8-0.7,1.5-1.5,1.5s-1.5-0.7-1.5-1.5c0-26-20.9-35.9-26.3-38L77.6,81c0,0.5-0.3,1-0.7,1.2
	c-0.2,0.1-0.5,0.2-0.8,0.2c-0.2,0-0.4,0-0.6-0.1l-8.9-4.2c-0.8-0.4-1.1-1.3-0.7-2c0.4-0.8,1.3-1.1,2-0.7l6.8,3.2L75.3,68
	c0-0.8,0.8-1.5,1.6-1.4c0.8,0,1.5,0.8,1.4,1.6l-0.1,2.1C82.4,71.7,107.4,82,107.4,111.5z M87.8,106.4v5.1c0,0.8-0.7,1.5-1.5,1.5
	c-0.8,0-1.5-0.7-1.5-1.5v-5.1c0-0.8,0.7-1.5,1.5-1.5C87.1,104.8,87.8,105.5,87.8,106.4z M60,37.2c-0.4,0-0.9,0.2-1.2,0.5
	c-0.1,0.1-0.2,0.3-0.3,0.5h-2.9c-0.1-0.2-0.1-0.4-0.3-0.5c-0.3-0.3-0.7-0.5-1.2-0.5H39.5c-0.4,0-0.8,0.2-1.1,0.5
	c-0.3,0.3-0.4,0.7-0.4,1.1c0,1.2,0.3,7.4,2.8,9.5c1.6,1.3,4.1,2.1,6.5,2.1c2.3,0,4.2-0.7,5.4-2c1.4-1.5,2.3-4.7,2.7-7h3.6
	c0.5,2.3,1.4,5.5,2.7,7c1.2,1.3,3.1,2,5.4,2c2.4,0,4.9-0.8,6.5-2.1c2.5-2.1,2.8-8.2,2.8-9.5c0-0.4-0.2-0.8-0.4-1.1
	c-0.3-0.3-0.7-0.5-1.1-0.5H60z M50.4,46.2c-0.6,0.6-1.7,1-3.1,1c-1.7,0-3.5-0.6-4.6-1.4c-0.8-0.6-1.4-3.1-1.6-5.6h11.3
	C52,42.6,51.2,45.3,50.4,46.2z M71.6,45.8c-1,0.8-2.9,1.4-4.6,1.4c-1.4,0-2.5-0.4-3.1-1c-0.8-0.9-1.6-3.6-2.1-6h11.3
	C73,42.7,72.4,45.2,71.6,45.8z M59.3,78.8v33.7c0,0.8-0.7,1.5-1.5,1.5s-1.5-0.7-1.5-1.5V78.8c0-0.8,0.7-1.5,1.5-1.5
	S59.3,78,59.3,78.8z M50.4,101c0,0.8-0.7,1.5-1.5,1.5H34.6c-0.8,0-1.5-0.7-1.5-1.5s0.7-1.5,1.5-1.5h14.2
	C49.7,99.4,50.4,100.1,50.4,101z"/>
</svg>
