<?xml version="1.0" encoding="utf-8"?>
<!-- Generator: Adobe Illustrator 18.1.1, SVG Export Plug-In . SVG Version: 6.00 Build 0)  -->
<svg version="1.1" id="Capa_1" xmlns="http://www.w3.org/2000/svg" xmlns:xlink="http://www.w3.org/1999/xlink" x="0px" y="0px"
	 viewBox="0 0 114 114" enable-background="new 0 0 114 114" xml:space="preserve">
<g>
	<path d="M87.3,39.2c-2.9,0-5.3,2.4-5.3,5.3s2.4,5.3,5.3,5.3s5.3-2.4,5.3-5.3S90.2,39.2,87.3,39.2z M87.3,46.3c-1,0-1.8-0.8-1.8-1.8
		s0.8-1.8,1.8-1.8s1.8,0.8,1.8,1.8S88.3,46.3,87.3,46.3z"/>
	<path d="M106.9,44.5H104c-3.2-7.8-9-14.6-16.8-19.7V5.3c0-1-0.8-1.8-1.8-1.8c-8.1,0-14.8,6.1-15.9,13.9C65.4,16.5,61.2,16,57,16
		c-13.3,0-25.8,4.4-35.2,12.4c-4.9,4.1-8.6,9-11.1,14.3c0,0,0,0,0,0c-3.9,0-7.1-3.2-7.1-7.1c0-1.6,0.5-3,1.4-4.3
		c0.6-0.8,0.4-1.9-0.4-2.5c-0.8-0.6-1.9-0.4-2.5,0.4C0.7,31.1,0,33.3,0,35.6c0,5.4,4.1,9.9,9.3,10.6c-1.4,4-2.2,8.2-2.2,12.6
		c0,14,8,27.1,21.4,35.1v9.4c0,3.9,3.2,7.1,7.1,7.1h3.6c3.9,0,7.1-3.2,7.1-7.1v-2.8c7,1.3,14.4,1.3,21.4,0v2.8
		c0,3.9,3.2,7.1,7.1,7.1h3.6c3.9,0,7.1-3.2,7.1-7.1v-9.5c7.4-4.4,13.2-10.4,16.9-17.3h4.5c3.9,0,7.1-3.2,7.1-7.1V51.7
		C114,47.7,110.8,44.5,106.9,44.5z M110.4,69.5c0,2-1.6,3.6-3.6,3.6H104c0.7-1.6,1.2-3.2,1.6-4.9c0.2-1-0.3-1.9-1.3-2.2
		c-1-0.2-1.9,0.3-2.2,1.3c-0.6,2.3-1.4,4.5-2.5,6.7c0,0.1-0.1,0.1-0.1,0.2c-3.5,6.9-9.3,12.9-16.9,17.2c-0.7,0.4-1.1,1.3-0.8,2v9.9
		c0,2-1.6,3.6-3.6,3.6h-3.6c-2,0-3.6-1.6-3.6-3.6v-5c0-0.5-0.2-1.1-0.7-1.4c-0.4-0.3-1-0.5-1.5-0.3c-3.9,0.9-8,1.3-12.1,1.3
		c-4.1,0-8.1-0.5-12.1-1.4c-0.5-0.1-1.1,0-1.5,0.3c-0.4,0.3-0.7,0.9-0.7,1.4v5c0,2-1.6,3.6-3.6,3.6h-3.6c-2,0-3.6-1.6-3.6-3.6
		l0-10.5c0-0.6-0.3-1.2-0.9-1.5C18.3,84,10.7,71.8,10.7,58.8c0-21.6,20.8-39.2,46.3-39.2c4.2,0,8.4,0.5,12.5,1.5v2.1
		c0,1,0.8,1.8,1.8,1.8s1.8-0.8,1.8-1.8v-3c0.1-0.3,0.1-0.6,0-0.9c0.2-6.1,4.8-11.1,10.7-12V25c-0.4,0.8-0.1,1.8,0.7,2.3
		c7.9,4.9,13.8,11.8,16.7,19.6c0,0.1,0,0.1,0.1,0.2c0.4,1.1,0.7,2.2,1,3.3c0.2,1,1.2,1.5,2.2,1.3c1-0.2,1.5-1.2,1.3-2.2
		c-0.1-0.4-0.2-0.9-0.4-1.3h1.6c2,0,3.6,1.6,3.6,3.6V69.5z"/>
	<path d="M57,46.3c3.2,0,6.2,1.5,7,3.6c0.1,0.3,0.2,0.6,0.2,0.9c0,2.9,2.4,5.3,5.3,5.3s5.3-2.4,5.3-5.3c0-1.5-0.3-3-0.8-4.5
		c-1.8-4.9-6.1-8.5-11.8-10c-0.5-2.4-2.7-4.3-5.2-4.3c-2.6,0-4.7,1.8-5.2,4.2c-3.3,0.9-6.3,2.6-8.5,4.8c-2.6,2.7-4.1,6.1-4.1,9.6
		c0,8.3,8,15.1,17.8,15.1c3.4,0,7.1,1.9,7.1,4.5s-3.8,4.5-7.1,4.5s-7.1-1.9-7.1-4.5c0-2.9-2.4-5.3-5.3-5.3s-5.3,2.4-5.3,5.3
		c0,3.5,1.4,6.9,4.1,9.6c2.2,2.3,5.2,4,8.5,4.8c0.5,2.4,2.7,4.2,5.2,4.2c2.6,0,4.7-1.8,5.2-4.2c3.3-0.9,6.3-2.6,8.5-4.8
		c2.6-2.7,4.1-6.1,4.1-9.6c0-8.3-8-15.1-17.8-15.1c-3.4,0-7.1-1.9-7.1-4.5S53.6,46.3,57,46.3z M57,58.8c7.9,0,14.3,5.2,14.3,11.6
		c0,5.3-4.6,10.1-11,11.3c-0.8,0.2-1.4,0.9-1.4,1.7v0.3c0,1-0.8,1.8-1.8,1.8s-1.8-0.8-1.8-1.8v-0.3c0-0.9-0.6-1.6-1.4-1.7
		c-6.4-1.2-11-6-11-11.3c0-1,0.8-1.8,1.8-1.8s1.8,0.8,1.8,1.8c0,4.4,4.8,8,10.7,8s10.7-3.6,10.7-8s-4.8-8-10.7-8
		c-7.9,0-14.3-5.2-14.3-11.6c0-5.3,4.6-10.1,11-11.3c0.8-0.2,1.4-0.9,1.4-1.7v-0.3c0-1,0.8-1.8,1.8-1.8c1,0,1.8,0.8,1.8,1.8v0.4
		c0,0.9,0.6,1.6,1.5,1.8c5,0.9,9,4,10.4,8c0.4,1.1,0.6,2.2,0.6,3.3c0,1-0.8,1.8-1.8,1.8s-1.8-0.8-1.8-1.8c0-0.7-0.1-1.4-0.4-2.1
		c-1.3-3.5-5.5-5.9-10.3-5.9c-5.9,0-10.7,3.6-10.7,8S51.1,58.8,57,58.8z"/>
	<path d="M36.7,27.4C31,30,26,33.7,22.3,38c-0.6,0.7-0.6,1.9,0.2,2.5c0.3,0.3,0.8,0.4,1.2,0.4c0.5,0,1-0.2,1.3-0.6
		c3.4-4,8-7.3,13.2-9.7c0.9-0.4,1.3-1.5,0.9-2.4C38.6,27.4,37.6,27,36.7,27.4z"/>
	<path d="M43.9,28.5c0.2,0,0.3,0,0.5-0.1c1.3-0.4,2.7-0.7,4.1-0.9c1-0.2,1.6-1.1,1.4-2.1s-1.1-1.6-2.1-1.4c-1.5,0.3-2.9,0.6-4.4,1
		c-0.9,0.3-1.5,1.2-1.2,2.2C42.4,28,43.1,28.5,43.9,28.5z"/>
</g>
</svg>
