<?xml version="1.0" encoding="utf-8"?>
<!-- Generator: Adobe Illustrator 18.1.1, SVG Export Plug-In . SVG Version: 6.00 Build 0)  -->
<svg version="1.1" id="Capa_1" xmlns="http://www.w3.org/2000/svg" xmlns:xlink="http://www.w3.org/1999/xlink" x="0px" y="0px"
	 viewBox="0 0 114 114" enable-background="new 0 0 114 114" xml:space="preserve">
<g>
	<g>
		<path fill="#030104" d="M57,8.6L27.4,36.4h18.8v29.2h21.7V36.4h18.8L57,8.6z M110.2,74.3L92.1,62.1H80.9L100.3,77H80.1
			c-0.6,0-1.1,0.3-1.4,0.8l-4.7,12.7H39.9l-4.7-12.7C35,77.3,34.5,77,33.9,77H13.7l19.4-14.9H21.9L3.8,74.3
			c-2.7,1.6-4.3,5.3-3.6,8.3l3.2,17.5c0.7,2.9,3.9,5.3,7.1,5.3h93c3.2,0,6.4-2.4,7.1-5.3l3.2-17.5C114.6,79.7,112.9,76,110.2,74.3z"
			/>
	</g>
</g>
</svg>
