<?xml version="1.0" encoding="utf-8"?>
<!-- Generator: Adobe Illustrator 18.1.1, SVG Export Plug-In . SVG Version: 6.00 Build 0)  -->
<svg version="1.1" id="Layer_1" xmlns="http://www.w3.org/2000/svg" xmlns:xlink="http://www.w3.org/1999/xlink" x="0px" y="0px"
	 viewBox="0 0 296 176" enable-background="new 0 0 296 176" xml:space="preserve">
<path fill-rule="evenodd" clip-rule="evenodd" d="M146,168.5h17c0,0,5.1-0.6,7.7-3.4c2.4-2.6,2.3-7.5,2.3-7.5s-0.3-22.8,10.2-26.1
	c10.4-3.3,23.8,22,38,31.7c10.7,7.4,18.9,5.8,18.9,5.8l37.9-0.5c0,0,19.8-1.2,10.4-16.8c-0.8-1.3-5.5-11.5-28.2-32.6
	c-23.8-22.1-20.6-18.5,8.1-56.7c17.4-23.3,24.4-37.4,22.2-43.5c-2.1-5.8-14.9-4.3-14.9-4.3L233,14.9c0,0-3.2-0.4-5.5,1
	c-2.3,1.4-3.8,4.6-3.8,4.6s-6.8,18-15.8,33.3c-19,32.3-26.6,34-29.7,32c-7.2-4.7-5.4-18.8-5.4-28.8c0-31.3,4.7-44.3-9.2-47.7
	c-4.6-1.1-8.1-1.9-19.9-2c-15.2-0.2-28.1,0-35.4,3.6c-4.9,2.4-8.6,7.7-6.3,8c2.8,0.4,9.2,1.7,12.6,6.3c4.4,6,4.2,19.3,4.2,19.3
	s2.5,36.8-5.9,41.4c-5.8,3.1-13.7-3.3-30.6-32.6C73.6,38.3,67,21.8,67,21.8s-1.3-3.1-3.5-4.8c-2.7-2-6.6-2.6-6.6-2.6l-40.6,0.3
	c0,0-6.1,0.2-8.3,2.8c-2,2.4-0.2,7.2-0.2,7.2S39.6,99,75.6,136.4C108.6,170.8,146,168.5,146,168.5L146,168.5z"/>
</svg>
